<svg xmlns="http://www.w3.org/2000/svg" width="40" height="39.91" viewBox="0 0 40 39.91">
  <metadata><?xpacket begin="﻿" id="W5M0MpCehiHzreSzNTczkc9d"?>
<x:xmpmeta xmlns:x="adobe:ns:meta/" x:xmptk="Adobe XMP Core 5.6-c138 79.159824, 2016/09/14-01:09:01        ">
   <rdf:RDF xmlns:rdf="http://www.w3.org/1999/02/22-rdf-syntax-ns#">
      <rdf:Description rdf:about=""/>
   </rdf:RDF>
</x:xmpmeta>
                                                                                                    
                                                                                                    
                                                                                                    
                                                                                                    
                                                                                                    
                                                                                                    
                                                                                                    
                                                                                                    
                                                                                                    
                                                                                                    
                                                                                                    
                                                                                                    
                                                                                                    
                                                                                                    
                                                                                                    
                                                                                                    
                                                                                                    
                                                                                                    
                                                                                                    
                                                                                                    
                           
<?xpacket end="w"?></metadata>
<defs>
    <style>
      .cls-1 {
        fill: #f16d7f;
        fill-rule: evenodd;
      }
    </style>
  </defs>
  <path id="Forma_1" data-name="Forma 1" class="cls-1" d="M804.776,2050.46c-1.893,0-3.458,1.63-3.458,4.56,0.02,2.9,1.565,4.35,3.347,4.35,1.83,0,3.415-1.52,3.415-4.58C808.081,2052.02,806.782,2050.46,804.776,2050.46Zm-0.065,7.73c-1.19,0-1.895-1.41-1.873-3.26,0-1.83.662-3.28,1.873-3.28,1.342,0,1.849,1.47,1.849,3.23C806.56,2056.8,805.988,2058.19,804.711,2058.19Zm-5.948-9.4c0-2.77-1.321-4.34-3.326-4.34-1.894,0-3.457,1.64-3.457,4.54,0.022,2.92,1.563,4.37,3.347,4.37C797.178,2053.36,798.763,2051.84,798.763,2048.79Zm-5.242.13c0-1.83.641-3.28,1.85-3.28,1.344,0,1.85,1.47,1.85,3.24,0,1.92-.573,3.3-1.85,3.3C794.162,2052.18,793.477,2050.77,793.521,2048.92Zm10.088-4.31-8.414,14.72h1.232l8.415-14.72h-1.233Zm12.967,10.31,3.411-2.96-3.411-2.97,2.209-3.96-4.208-1.6,0.732-4.5-4.494-.04-0.82-4.48-4.241,1.51-2.288-3.92L800,2034.89l-3.471-2.89-2.289,3.92L790,2034.4l-0.822,4.48-4.494.05,0.733,4.49-4.21,1.6,2.21,3.97L780,2051.96l3.411,2.96-2.21,3.97,4.209,1.6-0.732,4.49,4.494,0.05,0.82,4.48,4.24-1.51,2.289,3.92,3.471-2.9,3.471,2.9,2.288-3.92,4.239,1.51,0.821-4.48,4.494-.05-0.732-4.49,4.209-1.6Zm-2.665,3.77-1.459.56,0.254,1.55,0.371,2.29-2.281.02-1.561.02-0.285,1.55-0.417,2.27-2.151-.76-1.468-.53-0.792,1.36-1.161,1.99-1.761-1.47-1.206-1.01-1.205,1.01-1.762,1.47-1.161-1.99-0.793-1.36-1.468.52-2.152.77-0.416-2.27-0.286-1.56-1.56-.01-2.282-.03,0.372-2.28,0.254-1.56-1.459-.55-2.133-.81,1.12-2.01,0.767-1.38-1.183-1.03-1.734-1.5,1.735-1.51,1.182-1.03-0.766-1.38-1.12-2.01,2.134-.81,1.459-.55-0.254-1.56-0.371-2.28,2.281-.03,1.56-.01,0.285-1.56,0.417-2.27,2.151,0.77,1.468,0.52,0.793-1.36,1.16-1.99,1.762,1.47,1.205,1.01,1.2-1.01,1.762-1.47,1.162,1.99,0.793,1.36,1.468-.52,2.152-.77,0.416,2.27,0.285,1.56,1.56,0.01,2.282,0.03-0.372,2.28-0.254,1.56,1.459,0.55,2.133,0.81-1.12,2.02-0.766,1.37,1.182,1.03,1.734,1.5-1.734,1.51-1.183,1.03,0.766,1.38,1.121,2.01Z" transform="translate(-780 -2032)"/>
</svg>
