<svg xmlns="http://www.w3.org/2000/svg" width="45" height="31.94" viewBox="0 0 45 31.94">
  <metadata><?xpacket begin="﻿" id="W5M0MpCehiHzreSzNTczkc9d"?>
<x:xmpmeta xmlns:x="adobe:ns:meta/" x:xmptk="Adobe XMP Core 5.6-c138 79.159824, 2016/09/14-01:09:01        ">
   <rdf:RDF xmlns:rdf="http://www.w3.org/1999/02/22-rdf-syntax-ns#">
      <rdf:Description rdf:about=""/>
   </rdf:RDF>
</x:xmpmeta>
                                                                                                    
                                                                                                    
                                                                                                    
                                                                                                    
                                                                                                    
                                                                                                    
                                                                                                    
                                                                                                    
                                                                                                    
                                                                                                    
                                                                                                    
                                                                                                    
                                                                                                    
                                                                                                    
                                                                                                    
                                                                                                    
                                                                                                    
                                                                                                    
                                                                                                    
                                                                                                    
                           
<?xpacket end="w"?></metadata>
<defs>
    <style>
      .cls-1 {
        fill: #f16d7f;
        fill-rule: evenodd;
      }
    </style>
  </defs>
  <path id="Forma_1" data-name="Forma 1" class="cls-1" d="M399.137,2057.36a0.933,0.933,0,0,0-.928.94,0.893,0.893,0,1,1-.892-0.9,0.94,0.94,0,0,0,0-1.88,2.78,2.78,0,1,0,2.748,2.78A0.933,0.933,0,0,0,399.137,2057.36Zm26.464,0a0.933,0.933,0,0,0-.928.94,0.893,0.893,0,1,1-.892-0.9,0.94,0.94,0,0,0,0-1.88,2.78,2.78,0,1,0,2.748,2.78A0.934,0.934,0,0,0,425.6,2057.36Zm7.287-12-3.559-6.09c-1.221-2.06-2.373-3.26-4.678-3.46a0.922,0.922,0,0,0-.237-0.03h-7.12v-1.91a1.866,1.866,0,0,0-1.857-1.87H389.886a1.866,1.866,0,0,0-1.856,1.87v23.49a1.868,1.868,0,0,0,1.856,1.88h1.937a5.562,5.562,0,0,0,10.987,0h15.477a5.562,5.562,0,0,0,10.987,0h2.814a0.934,0.934,0,0,0,.929-0.94v-12.46A0.97,0.97,0,0,0,432.888,2045.36Zm-3.536,3.6a0.935,0.935,0,0,1,.929-0.94h0.879v1.85h-1.808v-0.91Zm1.251-3.82h-8.527a1.191,1.191,0,0,0-.19-0.01,0.954,0.954,0,0,1-.947-0.96v-3.76h6.9Zm-40.717-11.27h25.551v23.49H402.81a5.562,5.562,0,0,0-10.987,0h-1.937v-23.49Zm7.431,28.19a3.76,3.76,0,1,1,3.715-3.76A3.745,3.745,0,0,1,397.317,2062.06Zm26.464,0a3.76,3.76,0,1,1,3.715-3.76A3.745,3.745,0,0,1,423.781,2062.06Zm5.493-4.7a5.562,5.562,0,0,0-10.987,0h-0.993v-19.71h6.622a3.382,3.382,0,0,1,2.578.88h-6.483a0.934,0.934,0,0,0-.929.94v4.7a2.826,2.826,0,0,0,2.574,2.82,0.879,0.879,0,0,0,.23.03h6.379a2.833,2.833,0,0,0-.769,1.94v1.85a0.932,0.932,0,0,0,.928.93h2.736v5.62h-1.886Zm-36.564-19.71h19.9a0.935,0.935,0,0,0,0-1.87h-19.9A0.935,0.935,0,0,0,392.71,2037.65Z" transform="translate(-388.031 -2032)"/>
</svg>
